# xmcd
#
# Track frame offsets:
#	182
#	12887
#	27077
#	38725
#	50275
#	61525
#	75100
#	82055
#	94602
#	106412
#	116847
#	133805
#	148820
#	164242
#	175885
#	188485
#	206555
#	215972
#
# Disc length: 3111 seconds
#
# Revision: 0
# Processed by: cddbd v1.5.1PL0 Copyright (c) Steve Scherf et al.
# Submitted via: dBpowerAMP V4.0
#
DISCID=f50c2512
DTITLE=Various Artist - Route 66
DYEAR=1900
DGENRE=
TTITLE0=James Harrington and Jeff Ward - Bottleneck Blues
TTITLE1=Keith Thompson Band - Promised Land
TTITLE2=Moses Wiggins - Baby Let Me Follow You Down
TTITLE3=Lana Brown and Endless Avenue - Country Blues
TTITLE4=Richard Dobson and State of the Heart - Down in Lafayette
TTITLE5=Charlie McCoy - Crawdaddy Stomp
TTITLE6=Arizona Smoke Revue - Factory
TTITLE7=Time Machine - Soul Man
TTITLE8=Darras and Leroux - Memphis Blues
TTITLE9=Marcel Dadi - Song for Doc
TTITLE10=Larry Burton Band - Hey, hey, hey
TTITLE11=Buddy and the Ghost Riders - I Still Miss Someone
TTITLE12=Wind Jammers - Shenandoah
TTITLE13=Americana - Creole Hoedown
TTITLE14=JJ Reneaux - Leve Tes Fenetres Haut (Raise My Window High)
TTITLE15=Dave Baker and Motivator - Treat Her Right
TTITLE16=Charlie McCoy - Bourbon Street March
TTITLE17=Deadweights - Knockin' on Heaven's Door
EXTD=
EXTT0=
EXTT1=
EXTT2=
EXTT3=
EXTT4=
EXTT5=
EXTT6=
EXTT7=
EXTT8=
EXTT9=
EXTT10=
EXTT11=
EXTT12=
EXTT13=
EXTT14=
EXTT15=
EXTT16=
EXTT17=
PLAYORDER=
